<svg width="36" height="32" viewBox="0 0 36 32" fill="currentColor" xmlns="http://www.w3.org/2000/svg">
<path fill-rule="evenodd" clip-rule="evenodd" d="M24.3771 8.10543C22.9643 8.04731 21.5682 8.4402 20.3109 9.1789C19.3601 9.7375 19.3511 9.7228 19.3485 8.5805C19.3477 8.2129 19.3484 7.84533 19.3484 7.4777C19.3484 6.06859 19.3518 4.65942 19.3472 3.25034C19.3437 2.17022 19.188 2.01382 18.1342 2.00253C17.8251 1.99921 17.5158 1.99912 17.2067 2.00248C16.1998 2.01338 16.1393 2.06418 16.1367 3.03226C16.1311 5.14592 16.135 7.25961 16.135 9.37328H16.1325C16.1325 11.487 16.1324 13.6007 16.1327 15.7144C16.1327 16.0797 16.0716 16.4731 16.4113 16.7352C17.0943 17.2622 17.8062 17.7538 18.5731 18.1507C18.9908 18.3669 19.2804 18.1777 19.3304 17.6786C19.3729 17.2537 19.3667 16.8207 19.3437 16.3932C19.2887 15.3693 19.6276 14.4599 20.1684 13.621C22.0678 10.6749 26.1379 10.5398 28.2234 13.325C29.3295 14.8018 29.5146 16.4689 29.2427 18.2151C29.0396 19.5199 28.3302 20.5351 27.2541 21.3046C25.4237 22.6133 23.3925 22.6858 21.3277 22.1175C19.3696 21.5787 17.6843 20.4623 16.0441 19.308C14.8354 18.4574 13.6766 17.5378 12.4819 16.6673C10.4502 15.187 8.18231 14.6942 5.73083 15.2543C3.08766 15.8581 1.20801 17.4251 0.141697 19.9095C-0.173005 20.6428 0.0270835 20.9298 0.836443 20.952C1.51612 20.9706 2.19721 20.9401 2.87668 20.9615C3.33551 20.976 3.64804 20.8099 3.83064 20.3909C3.89151 20.2511 3.97796 20.1218 4.05866 19.9912C4.97089 18.516 6.59659 17.8734 8.28597 18.3185C9.03814 18.5167 9.73595 18.8318 10.3924 19.2468C11.8788 20.1865 13.3005 21.2163 14.7108 22.263C17.5688 24.3839 20.6109 25.9064 24.3574 25.5926C26.8974 25.3799 29.0096 24.4492 30.6443 22.5217C31.9446 20.9881 32.521 19.1979 32.5474 17.1862C32.5713 15.3952 32.2472 13.717 31.3168 12.1784C29.7483 9.58494 27.3798 8.22906 24.3771 8.10543Z" fill="#10121E"/>
</svg>
